# xmcd
#
# Track frame offsets:
#	150
#	16425
#	30525
#	48950
#	62525
#	75925
#	88402
#	100422
#	113522
#	133170
#
# Disc length: 1997 seconds
#
# Revision: 0
# Processed by: cddbd v1.5PL3 Copyright (c) Steve Scherf et al.
# Submitted via: dBpowerAMP V4.0
#
DISCID=7607cb0a
DTITLE=Kelsey - Paint with the Colors
DYEAR=2002
DGENRE=Country
TTITLE0=Paint With The Colors You're Given
TTITLE1=Can't Help Falling In Love With You
TTITLE2=Taking It A Day At A Time
TTITLE3=Gone For Good
TTITLE4=Love Don't Even Know My Name
TTITLE5=Daddy's Little Girl
TTITLE6=I Got You
TTITLE7=Where Were You
TTITLE8=Broken Hearted Star
TTITLE9=Amazing Grace
EXTD=
EXTT0=
EXTT1=
EXTT2=
EXTT3=
EXTT4=
EXTT5=
EXTT6=
EXTT7=
EXTT8=
EXTT9=
PLAYORDER=
